<?xml version="1.0" encoding="UTF-8" standalone="no"?><svg xmlns="http://www.w3.org/2000/svg" xmlns:xlink="http://www.w3.org/1999/xlink" contentScriptType="application/ecmascript" contentStyleType="text/css" height="737.25px" preserveAspectRatio="none" style="width:393px;height:737px;" version="1.1" viewBox="0 0 393 737" width="393.75px" zoomAndPan="magnify"><defs><filter height="300%" id="f1gb0ulzbwt3jc" width="300%" x="-1" y="-1"><feGaussianBlur result="blurOut" stdDeviation="1.5"/><feColorMatrix in="blurOut" result="blurOut2" type="matrix" values="0 0 0 0 0 0 0 0 0 0 0 0 0 0 0 0 0 0 .4 0"/><feOffset dx="3.0" dy="3.0" in="blurOut2" result="blurOut3"/><feBlend in="SourceGraphic" in2="blurOut3" mode="normal"/></filter></defs><g><text fill="#000000" font-family="sans-serif" font-size="13.5" lengthAdjust="spacingAndGlyphs" text-decoration="underline" textLength="148.5" x="127.125" y="14.0142">CLIENT's Class Diagram</text><text fill="#000000" font-family="sans-serif" font-size="13.5" lengthAdjust="spacingAndGlyphs" textLength="0" x="203.25" y="30.9946"/><!--MD5=[53eb7fbe6665bd2a99e5ab448a8e914e]
cluster it.polimi.ingsw.PSP30.Client--><polygon fill="#FFFFFF" filter="url(#f1gb0ulzbwt3jc)" points="16.5,144.9609,165,144.9609,170.25,162.668,377.25,162.668,377.25,728.4609,16.5,728.4609,16.5,144.9609" style="stroke: #000000; stroke-width: 1.125;"/><line style="stroke: #000000; stroke-width: 1.125;" x1="16.5" x2="170.25" y1="162.668" y2="162.668"/><text fill="#000000" font-family="sans-serif" font-size="10.5" font-weight="bold" lengthAdjust="spacingAndGlyphs" textLength="144" x="19.5" y="157.3608">it.polimi.ingsw.PSP30.Client</text><!--MD5=[aa8f7b917213fcc1c2766e2d59b49067]
cluster java.lang--><polygon fill="#FFFFFF" filter="url(#f1gb0ulzbwt3jc)" points="60.75,51.9609,112.5,51.9609,117.75,69.668,149.25,69.668,149.25,126.9609,60.75,126.9609,60.75,51.9609" style="stroke: #000000; stroke-width: 1.125;"/><line style="stroke: #000000; stroke-width: 1.125;" x1="60.75" x2="117.75" y1="69.668" y2="69.668"/><text fill="#000000" font-family="sans-serif" font-size="10.5" font-weight="bold" lengthAdjust="spacingAndGlyphs" textLength="47.25" x="63.75" y="64.3608">java.lang</text><!--MD5=[a30b878c40e3a0e1475cace78d0d6bd6]
class it.polimi.ingsw.PSP30.Client.Client--><rect fill="#FEFECE" filter="url(#f1gb0ulzbwt3jc)" height="544.4707" id="it.polimi.ingsw.PSP30.Client.Client" style="stroke: #A80036; stroke-width: 1.125;" width="156.75" x="208.125" y="171.9609"/><ellipse cx="271.3125" cy="183.9609" fill="#ADD1B2" rx="8.25" ry="8.25" style="stroke: #A80036; stroke-width: 0.75;"/><path d="M272.8125,181.3359 Q272.9648,180.9609 273.1406,180.7734 Q273.3164,180.5859 273.5156,180.5859 Q273.8672,180.5859 274.0898,180.7969 Q274.3125,181.0078 274.3125,181.5 L274.3125,182.6719 Q274.3125,183.1641 274.1016,183.375 Q273.8906,183.5859 273.5625,183.5859 Q273.2695,183.5859 273.082,183.457 Q272.8945,183.3281 272.8125,182.9883 Q272.7773,182.7539 272.6484,182.625 Q272.4141,182.3789 271.9922,182.2383 Q271.5703,182.0859 271.1484,182.0859 Q270.6211,182.0859 270.1758,182.2969 Q269.7422,182.5078 269.4023,182.9766 Q269.0625,183.4453 269.0625,184.0898 L269.0625,184.7813 Q269.0625,185.5547 269.6953,186.0703 Q270.3281,186.5859 271.4531,186.5859 Q272.1211,186.5859 272.5898,186.4336 Q272.8594,186.3516 273.1641,186.082 Q273.3633,185.9297 273.4688,185.8828 Q273.5742,185.8359 273.7031,185.8359 Q273.9492,185.8359 274.125,186.0352 Q274.3125,186.2227 274.3125,186.4922 Q274.3125,186.75 274.0547,187.0547 Q273.6797,187.5 273.082,187.7461 Q272.2969,188.0859 271.3359,188.0859 Q270.2109,188.0859 269.3086,187.6406 Q268.582,187.2891 268.0664,186.5273 Q267.5625,185.7656 267.5625,184.8633 L267.5625,184.043 Q267.5625,183.1055 268.0078,182.2852 Q268.4648,181.4648 269.25,181.0313 Q270.0469,180.5859 270.9375,180.5859 Q271.4766,180.5859 271.9453,180.7734 Q272.4141,180.9609 272.8125,181.3359 Z "/><text fill="#000000" font-family="sans-serif" font-size="9" lengthAdjust="spacingAndGlyphs" textLength="24" x="286.6875" y="187.6436">Client</text><line style="stroke: #A80036; stroke-width: 1.125;" x1="208.875" x2="364.125" y1="195.9609" y2="195.9609"/><ellipse cx="216.375" cy="204.2109" fill="none" rx="2.25" ry="2.25" style="stroke: #038048; stroke-width: 0.75;"/><text fill="#000000" font-family="sans-serif" font-size="8.25" lengthAdjust="spacingAndGlyphs" text-decoration="underline" textLength="93" x="223.125" y="207.5251">changedWorker : boolean</text><ellipse cx="216.375" cy="214.5879" fill="none" rx="2.25" ry="2.25" style="stroke: #038048; stroke-width: 0.75;"/><text fill="#000000" font-family="sans-serif" font-size="8.25" lengthAdjust="spacingAndGlyphs" text-decoration="underline" textLength="123" x="223.125" y="217.9021">networkHandler : NetworkHandler</text><rect fill="none" height="4.5" style="stroke: #C82930; stroke-width: 0.75;" width="4.5" x="214.125" y="222.7148"/><text fill="#000000" font-family="sans-serif" font-size="8.25" lengthAdjust="spacingAndGlyphs" text-decoration="underline" textLength="70.5" x="223.125" y="228.2791">SOCKET_PORT : int</text><rect fill="none" height="4.5" style="stroke: #C82930; stroke-width: 0.75;" width="4.5" x="214.125" y="233.0918"/><text fill="#000000" font-family="sans-serif" font-size="8.25" lengthAdjust="spacingAndGlyphs" text-decoration="underline" textLength="137.25" x="223.125" y="238.656">START_CONNECTION_TIMEOUT : long</text><rect fill="none" height="4.5" style="stroke: #C82930; stroke-width: 0.75;" width="4.5" x="214.125" y="243.4688"/><text fill="#000000" font-family="sans-serif" font-size="8.25" lengthAdjust="spacingAndGlyphs" text-decoration="underline" textLength="25.5" x="223.125" y="249.033">cli : CLI</text><rect fill="none" height="4.5" style="stroke: #C82930; stroke-width: 0.75;" width="4.5" x="214.125" y="253.8457"/><text fill="#000000" font-family="sans-serif" font-size="8.25" lengthAdjust="spacingAndGlyphs" text-decoration="underline" textLength="76.5" x="223.125" y="259.4099">clientThread : Thread</text><rect fill="none" height="4.5" style="stroke: #C82930; stroke-width: 0.75;" width="4.5" x="214.125" y="264.2227"/><text fill="#000000" font-family="sans-serif" font-size="8.25" lengthAdjust="spacingAndGlyphs" text-decoration="underline" textLength="84" x="223.125" y="269.7869">disconnected : boolean</text><rect fill="none" height="4.5" style="stroke: #C82930; stroke-width: 0.75;" width="4.5" x="214.125" y="274.5996"/><text fill="#000000" font-family="sans-serif" font-size="8.25" lengthAdjust="spacingAndGlyphs" text-decoration="underline" textLength="133.5" x="223.125" y="280.1638">incomingMessages : QueueOfEvents</text><rect fill="none" height="4.5" style="stroke: #C82930; stroke-width: 0.75;" width="4.5" x="214.125" y="284.9766"/><text fill="#000000" font-family="sans-serif" font-size="8.25" lengthAdjust="spacingAndGlyphs" text-decoration="underline" textLength="54.75" x="223.125" y="290.5408">input : Scanner</text><rect fill="none" height="4.5" style="stroke: #C82930; stroke-width: 0.75;" width="4.5" x="214.125" y="295.3535"/><text fill="#000000" font-family="sans-serif" font-size="8.25" lengthAdjust="spacingAndGlyphs" text-decoration="underline" textLength="57" x="223.125" y="300.9177">numPlayers : int</text><rect fill="none" height="4.5" style="stroke: #C82930; stroke-width: 0.75;" width="4.5" x="214.125" y="305.7305"/><text fill="#000000" font-family="sans-serif" font-size="8.25" lengthAdjust="spacingAndGlyphs" text-decoration="underline" textLength="83.25" x="223.125" y="311.2947">serverAddress : String</text><rect fill="none" height="4.5" style="stroke: #C82930; stroke-width: 0.75;" width="4.5" x="214.125" y="316.1074"/><text fill="#000000" font-family="sans-serif" font-size="8.25" lengthAdjust="spacingAndGlyphs" text-decoration="underline" textLength="19.5" x="223.125" y="321.6716">ui : UI</text><rect fill="none" height="4.5" style="stroke: #C82930; stroke-width: 0.75;" width="4.5" x="214.125" y="326.4844"/><text fill="#000000" font-family="sans-serif" font-size="8.25" lengthAdjust="spacingAndGlyphs" text-decoration="underline" textLength="63.75" x="223.125" y="332.0486">username : String</text><line style="stroke: #A80036; stroke-width: 1.125;" x1="208.875" x2="364.125" y1="336.8613" y2="336.8613"/><ellipse cx="216.375" cy="345.1113" fill="#84BE84" rx="2.25" ry="2.25" style="stroke: #038048; stroke-width: 0.75;"/><text fill="#000000" font-family="sans-serif" font-size="8.25" lengthAdjust="spacingAndGlyphs" text-decoration="underline" textLength="54" x="223.125" y="348.4255">addressError()</text><ellipse cx="216.375" cy="355.4883" fill="#84BE84" rx="2.25" ry="2.25" style="stroke: #038048; stroke-width: 0.75;"/><text fill="#000000" font-family="sans-serif" font-size="8.25" lengthAdjust="spacingAndGlyphs" text-decoration="underline" textLength="61.5" x="223.125" y="358.8025">askNumPlayers()</text><ellipse cx="216.375" cy="365.8652" fill="#84BE84" rx="2.25" ry="2.25" style="stroke: #038048; stroke-width: 0.75;"/><text fill="#000000" font-family="sans-serif" font-size="8.25" lengthAdjust="spacingAndGlyphs" text-decoration="underline" textLength="55.5" x="223.125" y="369.1794">askUsername()</text><ellipse cx="216.375" cy="376.2422" fill="#84BE84" rx="2.25" ry="2.25" style="stroke: #038048; stroke-width: 0.75;"/><text fill="#000000" font-family="sans-serif" font-size="8.25" lengthAdjust="spacingAndGlyphs" text-decoration="underline" textLength="78.75" x="223.125" y="379.5564">chooseConstruction()</text><ellipse cx="216.375" cy="386.6191" fill="#84BE84" rx="2.25" ry="2.25" style="stroke: #038048; stroke-width: 0.75;"/><text fill="#000000" font-family="sans-serif" font-size="8.25" lengthAdjust="spacingAndGlyphs" text-decoration="underline" textLength="48" x="223.125" y="389.9333">chooseGod()</text><ellipse cx="216.375" cy="396.9961" fill="#84BE84" rx="2.25" ry="2.25" style="stroke: #038048; stroke-width: 0.75;"/><text fill="#000000" font-family="sans-serif" font-size="8.25" lengthAdjust="spacingAndGlyphs" text-decoration="underline" textLength="65.25" x="223.125" y="400.3103">chooseGodsList()</text><ellipse cx="216.375" cy="407.373" fill="#84BE84" rx="2.25" ry="2.25" style="stroke: #038048; stroke-width: 0.75;"/><text fill="#000000" font-family="sans-serif" font-size="8.25" lengthAdjust="spacingAndGlyphs" text-decoration="underline" textLength="52.5" x="223.125" y="410.6873">chooseMove()</text><ellipse cx="216.375" cy="417.75" fill="#84BE84" rx="2.25" ry="2.25" style="stroke: #038048; stroke-width: 0.75;"/><text fill="#000000" font-family="sans-serif" font-size="8.25" lengthAdjust="spacingAndGlyphs" text-decoration="underline" textLength="60.75" x="223.125" y="421.0642">firstPlayerError()</text><ellipse cx="216.375" cy="428.127" fill="#84BE84" rx="2.25" ry="2.25" style="stroke: #038048; stroke-width: 0.75;"/><text fill="#000000" font-family="sans-serif" font-size="8.25" lengthAdjust="spacingAndGlyphs" text-decoration="underline" textLength="62.25" x="223.125" y="431.4412">getClientThread()</text><ellipse cx="216.375" cy="438.5039" fill="#84BE84" rx="2.25" ry="2.25" style="stroke: #038048; stroke-width: 0.75;"/><text fill="#000000" font-family="sans-serif" font-size="8.25" lengthAdjust="spacingAndGlyphs" text-decoration="underline" textLength="60" x="223.125" y="441.8181">getNumPlayers()</text><ellipse cx="216.375" cy="448.8809" fill="#84BE84" rx="2.25" ry="2.25" style="stroke: #038048; stroke-width: 0.75;"/><text fill="#000000" font-family="sans-serif" font-size="8.25" lengthAdjust="spacingAndGlyphs" text-decoration="underline" textLength="54" x="223.125" y="452.1951">getUsername()</text><ellipse cx="216.375" cy="459.2578" fill="#84BE84" rx="2.25" ry="2.25" style="stroke: #038048; stroke-width: 0.75;"/><text fill="#000000" font-family="sans-serif" font-size="8.25" lengthAdjust="spacingAndGlyphs" text-decoration="underline" textLength="37.5" x="223.125" y="462.572">godError()</text><ellipse cx="216.375" cy="469.6348" fill="#84BE84" rx="2.25" ry="2.25" style="stroke: #038048; stroke-width: 0.75;"/><text fill="#000000" font-family="sans-serif" font-size="8.25" lengthAdjust="spacingAndGlyphs" text-decoration="underline" textLength="81" x="223.125" y="472.949">interruptClientThread()</text><ellipse cx="216.375" cy="480.0117" fill="#84BE84" rx="2.25" ry="2.25" style="stroke: #038048; stroke-width: 0.75;"/><text fill="#000000" font-family="sans-serif" font-size="8.25" lengthAdjust="spacingAndGlyphs" text-decoration="underline" textLength="22.5" x="223.125" y="483.3259">main()</text><ellipse cx="216.375" cy="490.3887" fill="#84BE84" rx="2.25" ry="2.25" style="stroke: #038048; stroke-width: 0.75;"/><text fill="#000000" font-family="sans-serif" font-size="8.25" lengthAdjust="spacingAndGlyphs" text-decoration="underline" textLength="51.75" x="223.125" y="493.7029">placeWorker()</text><ellipse cx="216.375" cy="500.7656" fill="#84BE84" rx="2.25" ry="2.25" style="stroke: #038048; stroke-width: 0.75;"/><text fill="#000000" font-family="sans-serif" font-size="8.25" lengthAdjust="spacingAndGlyphs" text-decoration="underline" textLength="55.5" x="223.125" y="504.0798">remainingGod()</text><ellipse cx="216.375" cy="511.1426" fill="#84BE84" rx="2.25" ry="2.25" style="stroke: #038048; stroke-width: 0.75;"/><text fill="#000000" font-family="sans-serif" font-size="8.25" lengthAdjust="spacingAndGlyphs" text-decoration="underline" textLength="66" x="223.125" y="514.4568">selectFirstPlayer()</text><ellipse cx="216.375" cy="521.5195" fill="#84BE84" rx="2.25" ry="2.25" style="stroke: #038048; stroke-width: 0.75;"/><text fill="#000000" font-family="sans-serif" font-size="8.25" lengthAdjust="spacingAndGlyphs" text-decoration="underline" textLength="54" x="223.125" y="524.8337">selectWorker()</text><ellipse cx="216.375" cy="531.8965" fill="#84BE84" rx="2.25" ry="2.25" style="stroke: #038048; stroke-width: 0.75;"/><text fill="#000000" font-family="sans-serif" font-size="8.25" lengthAdjust="spacingAndGlyphs" text-decoration="underline" textLength="90.75" x="223.125" y="535.2107">sendMessageToServer()</text><ellipse cx="216.375" cy="542.2734" fill="#84BE84" rx="2.25" ry="2.25" style="stroke: #038048; stroke-width: 0.75;"/><text fill="#000000" font-family="sans-serif" font-size="8.25" lengthAdjust="spacingAndGlyphs" text-decoration="underline" textLength="66.75" x="223.125" y="545.5876">setDisconnected()</text><ellipse cx="216.375" cy="552.6504" fill="#84BE84" rx="2.25" ry="2.25" style="stroke: #038048; stroke-width: 0.75;"/><text fill="#000000" font-family="sans-serif" font-size="8.25" lengthAdjust="spacingAndGlyphs" text-decoration="underline" textLength="55.5" x="223.125" y="555.9646">setNumPlayer()</text><ellipse cx="216.375" cy="563.0273" fill="#84BE84" rx="2.25" ry="2.25" style="stroke: #038048; stroke-width: 0.75;"/><text fill="#000000" font-family="sans-serif" font-size="8.25" lengthAdjust="spacingAndGlyphs" text-decoration="underline" textLength="73.5" x="223.125" y="566.3416">setServerAddress()</text><ellipse cx="216.375" cy="573.4043" fill="#84BE84" rx="2.25" ry="2.25" style="stroke: #038048; stroke-width: 0.75;"/><text fill="#000000" font-family="sans-serif" font-size="8.25" lengthAdjust="spacingAndGlyphs" text-decoration="underline" textLength="24" x="223.125" y="576.7185">setUI()</text><ellipse cx="216.375" cy="583.7813" fill="#84BE84" rx="2.25" ry="2.25" style="stroke: #038048; stroke-width: 0.75;"/><text fill="#000000" font-family="sans-serif" font-size="8.25" lengthAdjust="spacingAndGlyphs" text-decoration="underline" textLength="54" x="223.125" y="587.0955">setUsername()</text><ellipse cx="216.375" cy="594.1582" fill="#84BE84" rx="2.25" ry="2.25" style="stroke: #038048; stroke-width: 0.75;"/><text fill="#000000" font-family="sans-serif" font-size="8.25" lengthAdjust="spacingAndGlyphs" text-decoration="underline" textLength="63" x="223.125" y="597.4724">startConnection()</text><ellipse cx="216.375" cy="604.5352" fill="#84BE84" rx="2.25" ry="2.25" style="stroke: #038048; stroke-width: 0.75;"/><text fill="#000000" font-family="sans-serif" font-size="8.25" lengthAdjust="spacingAndGlyphs" text-decoration="underline" textLength="50.25" x="223.125" y="607.8494">workerError()</text><rect fill="#F24D5C" height="4.5" style="stroke: #C82930; stroke-width: 0.75;" width="4.5" x="214.125" y="612.6621"/><text fill="#000000" font-family="sans-serif" font-size="8.25" lengthAdjust="spacingAndGlyphs" text-decoration="underline" textLength="48" x="223.125" y="618.2263">invalidMove()</text><rect fill="#F24D5C" height="4.5" style="stroke: #C82930; stroke-width: 0.75;" width="4.5" x="214.125" y="623.0391"/><text fill="#000000" font-family="sans-serif" font-size="8.25" lengthAdjust="spacingAndGlyphs" text-decoration="underline" textLength="88.5" x="223.125" y="628.6033">lobbyStatusNotification()</text><rect fill="#F24D5C" height="4.5" style="stroke: #C82930; stroke-width: 0.75;" width="4.5" x="214.125" y="633.416"/><text fill="#000000" font-family="sans-serif" font-size="8.25" lengthAdjust="spacingAndGlyphs" text-decoration="underline" textLength="69" x="223.125" y="638.9802">noMovesAllowed()</text><rect fill="#F24D5C" height="4.5" style="stroke: #C82930; stroke-width: 0.75;" width="4.5" x="214.125" y="643.793"/><text fill="#000000" font-family="sans-serif" font-size="8.25" lengthAdjust="spacingAndGlyphs" text-decoration="underline" textLength="70.5" x="223.125" y="649.3572">otherWorkerMove()</text><rect fill="#F24D5C" height="4.5" style="stroke: #C82930; stroke-width: 0.75;" width="4.5" x="214.125" y="654.1699"/><text fill="#000000" font-family="sans-serif" font-size="8.25" lengthAdjust="spacingAndGlyphs" text-decoration="underline" textLength="52.5" x="223.125" y="659.7341">removeBlock()</text><rect fill="#F24D5C" height="4.5" style="stroke: #C82930; stroke-width: 0.75;" width="4.5" x="214.125" y="664.5469"/><text fill="#000000" font-family="sans-serif" font-size="8.25" lengthAdjust="spacingAndGlyphs" text-decoration="underline" textLength="62.25" x="223.125" y="670.1111">startNotification()</text><rect fill="#F24D5C" height="4.5" style="stroke: #C82930; stroke-width: 0.75;" width="4.5" x="214.125" y="674.9238"/><text fill="#000000" font-family="sans-serif" font-size="8.25" lengthAdjust="spacingAndGlyphs" text-decoration="underline" textLength="68.25" x="223.125" y="680.488">statusNotification()</text><rect fill="#F24D5C" height="4.5" style="stroke: #C82930; stroke-width: 0.75;" width="4.5" x="214.125" y="685.3008"/><text fill="#000000" font-family="sans-serif" font-size="8.25" lengthAdjust="spacingAndGlyphs" text-decoration="underline" textLength="43.5" x="223.125" y="690.865">usePower()</text><rect fill="#F24D5C" height="4.5" style="stroke: #C82930; stroke-width: 0.75;" width="4.5" x="214.125" y="695.6777"/><text fill="#000000" font-family="sans-serif" font-size="8.25" lengthAdjust="spacingAndGlyphs" text-decoration="underline" textLength="60" x="223.125" y="701.2419">usernameError()</text><rect fill="#F24D5C" height="4.5" style="stroke: #C82930; stroke-width: 0.75;" width="4.5" x="214.125" y="706.0547"/><text fill="#000000" font-family="sans-serif" font-size="8.25" lengthAdjust="spacingAndGlyphs" text-decoration="underline" textLength="71.25" x="223.125" y="711.6189">winnerNotification()</text><!--MD5=[0c0d38f6f6022dfdd1ea23fbcff80153]
class it.polimi.ingsw.PSP30.Client.NetworkHandler--><rect fill="#FEFECE" filter="url(#f1gb0ulzbwt3jc)" height="274.6699" id="it.polimi.ingsw.PSP30.Client.NetworkHandler" style="stroke: #A80036; stroke-width: 1.125;" width="153" x="28.5" y="306.9609"/><ellipse cx="68.4375" cy="318.9609" fill="#ADD1B2" rx="8.25" ry="8.25" style="stroke: #A80036; stroke-width: 0.75;"/><path d="M69.9375,316.3359 Q70.0898,315.9609 70.2656,315.7734 Q70.4414,315.5859 70.6406,315.5859 Q70.9922,315.5859 71.2148,315.7969 Q71.4375,316.0078 71.4375,316.5 L71.4375,317.6719 Q71.4375,318.1641 71.2266,318.375 Q71.0156,318.5859 70.6875,318.5859 Q70.3945,318.5859 70.207,318.457 Q70.0195,318.3281 69.9375,317.9883 Q69.9023,317.7539 69.7734,317.625 Q69.5391,317.3789 69.1172,317.2383 Q68.6953,317.0859 68.2734,317.0859 Q67.7461,317.0859 67.3008,317.2969 Q66.8672,317.5078 66.5273,317.9766 Q66.1875,318.4453 66.1875,319.0898 L66.1875,319.7813 Q66.1875,320.5547 66.8203,321.0703 Q67.4531,321.5859 68.5781,321.5859 Q69.2461,321.5859 69.7148,321.4336 Q69.9844,321.3516 70.2891,321.082 Q70.4883,320.9297 70.5938,320.8828 Q70.6992,320.8359 70.8281,320.8359 Q71.0742,320.8359 71.25,321.0352 Q71.4375,321.2227 71.4375,321.4922 Q71.4375,321.75 71.1797,322.0547 Q70.8047,322.5 70.207,322.7461 Q69.4219,323.0859 68.4609,323.0859 Q67.3359,323.0859 66.4336,322.6406 Q65.707,322.2891 65.1914,321.5273 Q64.6875,320.7656 64.6875,319.8633 L64.6875,319.043 Q64.6875,318.1055 65.1328,317.2852 Q65.5898,316.4648 66.375,316.0313 Q67.1719,315.5859 68.0625,315.5859 Q68.6016,315.5859 69.0703,315.7734 Q69.5391,315.9609 69.9375,316.3359 Z "/><text fill="#000000" font-family="sans-serif" font-size="9" lengthAdjust="spacingAndGlyphs" textLength="66.75" x="83.8125" y="322.6436">NetworkHandler</text><line style="stroke: #A80036; stroke-width: 1.125;" x1="29.25" x2="180.75" y1="330.9609" y2="330.9609"/><polygon fill="none" points="36.75,335.4609,39.75,338.4609,36.75,341.4609,33.75,338.4609" style="stroke: #B38D22; stroke-width: 0.75;"/><text fill="#000000" font-family="sans-serif" font-size="8.25" lengthAdjust="spacingAndGlyphs" text-decoration="underline" textLength="133.5" x="43.5" y="342.5251">incomingMessages : QueueOfEvents</text><rect fill="none" height="4.5" style="stroke: #C82930; stroke-width: 0.75;" width="4.5" x="34.5" y="347.3379"/><text fill="#000000" font-family="sans-serif" font-size="8.25" lengthAdjust="spacingAndGlyphs" text-decoration="underline" textLength="76.5" x="43.5" y="352.9021">clientThread : Thread</text><rect fill="none" height="4.5" style="stroke: #C82930; stroke-width: 0.75;" width="4.5" x="34.5" y="357.7148"/><text fill="#000000" font-family="sans-serif" font-size="8.25" lengthAdjust="spacingAndGlyphs" text-decoration="underline" textLength="90" x="43.5" y="363.2791">input : ObjectInputStream</text><rect fill="none" height="4.5" style="stroke: #C82930; stroke-width: 0.75;" width="4.5" x="34.5" y="368.0918"/><text fill="#000000" font-family="sans-serif" font-size="8.25" lengthAdjust="spacingAndGlyphs" text-decoration="underline" textLength="80.25" x="43.5" y="373.656">isConnected : boolean</text><rect fill="none" height="4.5" style="stroke: #C82930; stroke-width: 0.75;" width="4.5" x="34.5" y="378.4688"/><text fill="#000000" font-family="sans-serif" font-size="8.25" lengthAdjust="spacingAndGlyphs" text-decoration="underline" textLength="102" x="43.5" y="384.033">output : ObjectOutputStream</text><rect fill="none" height="4.5" style="stroke: #C82930; stroke-width: 0.75;" width="4.5" x="34.5" y="388.8457"/><text fill="#000000" font-family="sans-serif" font-size="8.25" lengthAdjust="spacingAndGlyphs" textLength="84" x="43.5" y="394.4099">pingReceived : boolean</text><rect fill="none" height="4.5" style="stroke: #C82930; stroke-width: 0.75;" width="4.5" x="34.5" y="399.2227"/><text fill="#000000" font-family="sans-serif" font-size="8.25" lengthAdjust="spacingAndGlyphs" textLength="72.75" x="43.5" y="404.7869">pingThread : Thread</text><rect fill="none" height="4.5" style="stroke: #C82930; stroke-width: 0.75;" width="4.5" x="34.5" y="409.5996"/><text fill="#000000" font-family="sans-serif" font-size="8.25" lengthAdjust="spacingAndGlyphs" textLength="83.25" x="43.5" y="415.1638">serverAddress : String</text><rect fill="none" height="4.5" style="stroke: #C82930; stroke-width: 0.75;" width="4.5" x="34.5" y="419.9766"/><text fill="#000000" font-family="sans-serif" font-size="8.25" lengthAdjust="spacingAndGlyphs" textLength="53.25" x="43.5" y="425.5408">serverPort : int</text><rect fill="none" height="4.5" style="stroke: #C82930; stroke-width: 0.75;" width="4.5" x="34.5" y="430.3535"/><text fill="#000000" font-family="sans-serif" font-size="8.25" lengthAdjust="spacingAndGlyphs" text-decoration="underline" textLength="55.5" x="43.5" y="435.9177">socket : Socket</text><line style="stroke: #A80036; stroke-width: 1.125;" x1="29.25" x2="180.75" y1="440.7305" y2="440.7305"/><ellipse cx="36.75" cy="448.9805" fill="#84BE84" rx="2.25" ry="2.25" style="stroke: #038048; stroke-width: 0.75;"/><text fill="#000000" font-family="sans-serif" font-size="8.25" lengthAdjust="spacingAndGlyphs" textLength="64.5" x="43.5" y="452.2947">NetworkHandler()</text><ellipse cx="36.75" cy="459.3574" fill="#84BE84" rx="2.25" ry="2.25" style="stroke: #038048; stroke-width: 0.75;"/><text fill="#000000" font-family="sans-serif" font-size="8.25" lengthAdjust="spacingAndGlyphs" text-decoration="underline" textLength="25.5" x="43.5" y="462.6716">close()</text><ellipse cx="36.75" cy="469.7344" fill="#84BE84" rx="2.25" ry="2.25" style="stroke: #038048; stroke-width: 0.75;"/><text fill="#000000" font-family="sans-serif" font-size="8.25" lengthAdjust="spacingAndGlyphs" textLength="35.25" x="43.5" y="473.0486">connect()</text><ellipse cx="36.75" cy="480.1113" fill="#84BE84" rx="2.25" ry="2.25" style="stroke: #038048; stroke-width: 0.75;"/><text fill="#000000" font-family="sans-serif" font-size="8.25" lengthAdjust="spacingAndGlyphs" text-decoration="underline" textLength="45.75" x="43.5" y="483.4255">disconnect()</text><ellipse cx="36.75" cy="490.4883" fill="#84BE84" rx="2.25" ry="2.25" style="stroke: #038048; stroke-width: 0.75;"/><text fill="#000000" font-family="sans-serif" font-size="8.25" lengthAdjust="spacingAndGlyphs" textLength="73.5" x="43.5" y="493.8025">getServerAddress()</text><ellipse cx="36.75" cy="500.8652" fill="#84BE84" rx="2.25" ry="2.25" style="stroke: #038048; stroke-width: 0.75;"/><text fill="#000000" font-family="sans-serif" font-size="8.25" lengthAdjust="spacingAndGlyphs" textLength="56.25" x="43.5" y="504.1794">getServerPort()</text><ellipse cx="36.75" cy="511.2422" fill="#84BE84" rx="2.25" ry="2.25" style="stroke: #038048; stroke-width: 0.75;"/><text fill="#000000" font-family="sans-serif" font-size="8.25" lengthAdjust="spacingAndGlyphs" text-decoration="underline" textLength="51" x="43.5" y="514.5564">isConnected()</text><ellipse cx="36.75" cy="521.6191" fill="#84BE84" rx="2.25" ry="2.25" style="stroke: #038048; stroke-width: 0.75;"/><text fill="#000000" font-family="sans-serif" font-size="8.25" lengthAdjust="spacingAndGlyphs" textLength="27" x="43.5" y="524.9333">isPing()</text><ellipse cx="36.75" cy="531.9961" fill="#84BE84" rx="2.25" ry="2.25" style="stroke: #038048; stroke-width: 0.75;"/><text fill="#000000" font-family="sans-serif" font-size="8.25" lengthAdjust="spacingAndGlyphs" textLength="33" x="43.5" y="535.3103">receive()</text><ellipse cx="36.75" cy="542.373" fill="#84BE84" rx="2.25" ry="2.25" style="stroke: #038048; stroke-width: 0.75;"/><text fill="#000000" font-family="sans-serif" font-size="8.25" lengthAdjust="spacingAndGlyphs" textLength="18" x="43.5" y="545.6873">run()</text><ellipse cx="36.75" cy="552.75" fill="#84BE84" rx="2.25" ry="2.25" style="stroke: #038048; stroke-width: 0.75;"/><text fill="#000000" font-family="sans-serif" font-size="8.25" lengthAdjust="spacingAndGlyphs" text-decoration="underline" textLength="57" x="43.5" y="556.0642">sendMessage()</text><ellipse cx="36.75" cy="563.127" fill="#84BE84" rx="2.25" ry="2.25" style="stroke: #038048; stroke-width: 0.75;"/><text fill="#000000" font-family="sans-serif" font-size="8.25" lengthAdjust="spacingAndGlyphs" text-decoration="underline" textLength="56.25" x="43.5" y="566.4412">setConnected()</text><ellipse cx="36.75" cy="573.5039" fill="#84BE84" rx="2.25" ry="2.25" style="stroke: #038048; stroke-width: 0.75;"/><text fill="#000000" font-family="sans-serif" font-size="8.25" lengthAdjust="spacingAndGlyphs" textLength="66" x="43.5" y="576.8181">setPingReceived()</text><!--MD5=[8dac795f9edbf65a524ac462449c98fb]
class java.lang.Runnable--><rect fill="#FEFECE" filter="url(#f1gb0ulzbwt3jc)" height="36" id="java.lang.Runnable" style="stroke: #A80036; stroke-width: 1.125;" width="64.5" x="72.75" y="78.9609"/><ellipse cx="84" cy="90.9609" fill="#ADD1B2" rx="8.25" ry="8.25" style="stroke: #A80036; stroke-width: 0.75;"/><path d="M85.5,88.3359 Q85.6523,87.9609 85.8281,87.7734 Q86.0039,87.5859 86.2031,87.5859 Q86.5547,87.5859 86.7773,87.7969 Q87,88.0078 87,88.5 L87,89.6719 Q87,90.1641 86.7891,90.375 Q86.5781,90.5859 86.25,90.5859 Q85.957,90.5859 85.7695,90.457 Q85.582,90.3281 85.5,89.9883 Q85.4648,89.7539 85.3359,89.625 Q85.1016,89.3789 84.6797,89.2383 Q84.2578,89.0859 83.8359,89.0859 Q83.3086,89.0859 82.8633,89.2969 Q82.4297,89.5078 82.0898,89.9766 Q81.75,90.4453 81.75,91.0898 L81.75,91.7813 Q81.75,92.5547 82.3828,93.0703 Q83.0156,93.5859 84.1406,93.5859 Q84.8086,93.5859 85.2773,93.4336 Q85.5469,93.3516 85.8516,93.082 Q86.0508,92.9297 86.1563,92.8828 Q86.2617,92.8359 86.3906,92.8359 Q86.6367,92.8359 86.8125,93.0352 Q87,93.2227 87,93.4922 Q87,93.75 86.7422,94.0547 Q86.3672,94.5 85.7695,94.7461 Q84.9844,95.0859 84.0234,95.0859 Q82.8984,95.0859 81.9961,94.6406 Q81.2695,94.2891 80.7539,93.5273 Q80.25,92.7656 80.25,91.8633 L80.25,91.043 Q80.25,90.1055 80.6953,89.2852 Q81.1523,88.4648 81.9375,88.0313 Q82.7344,87.5859 83.625,87.5859 Q84.1641,87.5859 84.6328,87.7734 Q85.1016,87.9609 85.5,88.3359 Z "/><text fill="#000000" font-family="sans-serif" font-size="9" lengthAdjust="spacingAndGlyphs" textLength="40.5" x="94.5" y="94.6436">Runnable</text><line style="stroke: #A80036; stroke-width: 1.125;" x1="73.5" x2="136.5" y1="102.9609" y2="102.9609"/><line style="stroke: #A80036; stroke-width: 1.125;" x1="73.5" x2="136.5" y1="108.9609" y2="108.9609"/><!--MD5=[86e74afb1f86cba6d495cfa0006d67ea]
reverse link java.lang.Runnable to it.polimi.ingsw.PSP30.Client.NetworkHandler--><path d="M105,130.1657 C105,170.6049 105,242.2682 105,306.8574 " fill="none" id="java.lang.Runnable&lt;-it.polimi.ingsw.PSP30.Client.NetworkHandler" style="stroke: #A80036; stroke-width: 0.75; stroke-dasharray: 7.0,7.0;"/><polygon fill="none" points="99.75,130.0937,105,115.0937,110.25,130.0937,99.75,130.0937" style="stroke: #A80036; stroke-width: 0.75;"/><!--MD5=[13df5033a63ec270d2c9fa45750d63b9]
@startuml

title __CLIENT's Class Diagram__\n

    namespace it.polimi.ingsw.PSP30.Client {
      class it.polimi.ingsw.PSP30.Client.Client {
          {static} + changedWorker : boolean
          {static} + networkHandler : NetworkHandler
          {static} - SOCKET_PORT : int
          {static} - START_CONNECTION_TIMEOUT : long
          {static} - cli : CLI
          {static} - clientThread : Thread
          {static} - disconnected : boolean
          {static} - incomingMessages : QueueOfEvents
          {static} - input : Scanner
          {static} - numPlayers : int
          {static} - serverAddress : String
          {static} - ui : UI
          {static} - username : String
          {static} + addressError()
          {static} + askNumPlayers()
          {static} + askUsername()
          {static} + chooseConstruction()
          {static} + chooseGod()
          {static} + chooseGodsList()
          {static} + chooseMove()
          {static} + firstPlayerError()
          {static} + getClientThread()
          {static} + getNumPlayers()
          {static} + getUsername()
          {static} + godError()
          {static} + interruptClientThread()
          {static} + main()
          {static} + placeWorker()
          {static} + remainingGod()
          {static} + selectFirstPlayer()
          {static} + selectWorker()
          {static} + sendMessageToServer()
          {static} + setDisconnected()
          {static} + setNumPlayer()
          {static} + setServerAddress()
          {static} + setUI()
          {static} + setUsername()
          {static} + startConnection()
          {static} + workerError()
          {static} - invalidMove()
          {static} - lobbyStatusNotification()
          {static} - noMovesAllowed()
          {static} - otherWorkerMove()
          {static} - removeBlock()
          {static} - startNotification()
          {static} - statusNotification()
          {static} - usePower()
          {static} - usernameError()
          {static} - winnerNotification()
      }
    }

    namespace it.polimi.ingsw.PSP30.Client {
      class it.polimi.ingsw.PSP30.Client.NetworkHandler {
          {static} # incomingMessages : QueueOfEvents
          {static} - clientThread : Thread
          {static} - input : ObjectInputStream
          {static} - isConnected : boolean
          {static} - output : ObjectOutputStream
          - pingReceived : boolean
          - pingThread : Thread
          - serverAddress : String
          - serverPort : int
          {static} - socket : Socket
          + NetworkHandler()
          {static} + close()
          + connect()
          {static} + disconnect()
          + getServerAddress()
          + getServerPort()
          {static} + isConnected()
          + isPing()
          + receive()
          + run()
          {static} + sendMessage()
          {static} + setConnected()
          + setPingReceived()
      }
    }
  

  it.polimi.ingsw.PSP30.Client.NetworkHandler .up.|> java.lang.Runnable



@enduml

PlantUML version 1.2020.09(Sun May 10 12:51:06 CEST 2020)
(GPL source distribution)
Java Runtime: OpenJDK Runtime Environment
JVM: OpenJDK 64-Bit Server VM
Java Version: 11.0.6+8-b520.66
Operating System: Windows 10
Default Encoding: Cp1252
Language: it
Country: IT
--></g></svg>