<?xml version="1.0" encoding="UTF-8" standalone="no"?><svg xmlns="http://www.w3.org/2000/svg" xmlns:xlink="http://www.w3.org/1999/xlink" contentScriptType="application/ecmascript" contentStyleType="text/css" height="415.5px" preserveAspectRatio="none" style="width:237px;height:415px;" version="1.1" viewBox="0 0 237 415" width="237px" zoomAndPan="magnify"><defs><filter height="300%" id="f1bw54mljr82u6" width="300%" x="-1" y="-1"><feGaussianBlur result="blurOut" stdDeviation="1.5"/><feColorMatrix in="blurOut" result="blurOut2" type="matrix" values="0 0 0 0 0 0 0 0 0 0 0 0 0 0 0 0 0 0 .4 0"/><feOffset dx="3.0" dy="3.0" in="blurOut2" result="blurOut3"/><feBlend in="SourceGraphic" in2="blurOut3" mode="normal"/></filter></defs><g><text fill="#000000" font-family="sans-serif" font-size="13.5" lengthAdjust="spacingAndGlyphs" text-decoration="underline" textLength="138.75" x="53.625" y="14.0142">UTILS's Class Diagram</text><text fill="#000000" font-family="sans-serif" font-size="13.5" lengthAdjust="spacingAndGlyphs" textLength="0" x="124.875" y="30.9946"/><!--MD5=[14d5bf2c65aae0740fb73dd4a518f25d]
cluster it.polimi.ingsw.PSP30.Utils--><polygon fill="#FFFFFF" filter="url(#f1bw54mljr82u6)" points="16.5,51.9609,157.5,51.9609,162.75,69.668,219.75,69.668,219.75,294.2109,16.5,294.2109,16.5,51.9609" style="stroke: #000000; stroke-width: 1.125;"/><line style="stroke: #000000; stroke-width: 1.125;" x1="16.5" x2="162.75" y1="69.668" y2="69.668"/><text fill="#000000" font-family="sans-serif" font-size="10.5" font-weight="bold" lengthAdjust="spacingAndGlyphs" textLength="136.5" x="19.5" y="64.3608">it.polimi.ingsw.PSP30.Utils</text><!--MD5=[e73093974fc7dc20e1d6e8af87c6748e]
cluster it.polimi.ingsw.PSP30.Messages--><polygon fill="#FFFFFF" filter="url(#f1bw54mljr82u6)" points="41.25,331.7109,213,331.7109,218.25,349.418,220.5,349.418,220.5,406.7109,41.25,406.7109,41.25,331.7109" style="stroke: #000000; stroke-width: 1.125;"/><line style="stroke: #000000; stroke-width: 1.125;" x1="41.25" x2="218.25" y1="349.418" y2="349.418"/><text fill="#000000" font-family="sans-serif" font-size="10.5" font-weight="bold" lengthAdjust="spacingAndGlyphs" textLength="167.25" x="44.25" y="344.1108">it.polimi.ingsw.PSP30.Messages</text><!--MD5=[1eb651997e8fa617a8d5301b81533384]
class it.polimi.ingsw.PSP30.Utils.QueueOfEvents--><rect fill="#FEFECE" filter="url(#f1bw54mljr82u6)" height="108.6387" id="it.polimi.ingsw.PSP30.Utils.QueueOfEvents" style="stroke: #A80036; stroke-width: 1.125;" width="88.5" x="81.75" y="78.9609"/><ellipse cx="93" cy="90.9609" fill="#ADD1B2" rx="8.25" ry="8.25" style="stroke: #A80036; stroke-width: 0.75;"/><path d="M94.5,88.3359 Q94.6523,87.9609 94.8281,87.7734 Q95.0039,87.5859 95.2031,87.5859 Q95.5547,87.5859 95.7773,87.7969 Q96,88.0078 96,88.5 L96,89.6719 Q96,90.1641 95.7891,90.375 Q95.5781,90.5859 95.25,90.5859 Q94.957,90.5859 94.7695,90.457 Q94.582,90.3281 94.5,89.9883 Q94.4648,89.7539 94.3359,89.625 Q94.1016,89.3789 93.6797,89.2383 Q93.2578,89.0859 92.8359,89.0859 Q92.3086,89.0859 91.8633,89.2969 Q91.4297,89.5078 91.0898,89.9766 Q90.75,90.4453 90.75,91.0898 L90.75,91.7813 Q90.75,92.5547 91.3828,93.0703 Q92.0156,93.5859 93.1406,93.5859 Q93.8086,93.5859 94.2773,93.4336 Q94.5469,93.3516 94.8516,93.082 Q95.0508,92.9297 95.1563,92.8828 Q95.2617,92.8359 95.3906,92.8359 Q95.6367,92.8359 95.8125,93.0352 Q96,93.2227 96,93.4922 Q96,93.75 95.7422,94.0547 Q95.3672,94.5 94.7695,94.7461 Q93.9844,95.0859 93.0234,95.0859 Q91.8984,95.0859 90.9961,94.6406 Q90.2695,94.2891 89.7539,93.5273 Q89.25,92.7656 89.25,91.8633 L89.25,91.043 Q89.25,90.1055 89.6953,89.2852 Q90.1523,88.4648 90.9375,88.0313 Q91.7344,87.5859 92.625,87.5859 Q93.1641,87.5859 93.6328,87.7734 Q94.1016,87.9609 94.5,88.3359 Z "/><text fill="#000000" font-family="sans-serif" font-size="9" lengthAdjust="spacingAndGlyphs" textLength="64.5" x="103.5" y="94.6436">QueueOfEvents</text><line style="stroke: #A80036; stroke-width: 1.125;" x1="82.5" x2="169.5" y1="102.9609" y2="102.9609"/><rect fill="none" height="4.5" style="stroke: #C82930; stroke-width: 0.75;" width="4.5" x="87.75" y="108.9609"/><text fill="#000000" font-family="sans-serif" font-size="8.25" lengthAdjust="spacingAndGlyphs" text-decoration="underline" textLength="66.75" x="96.75" y="114.5251">MAX_EVENTS : int</text><rect fill="none" height="4.5" style="stroke: #C82930; stroke-width: 0.75;" width="4.5" x="87.75" y="119.3379"/><text fill="#000000" font-family="sans-serif" font-size="8.25" lengthAdjust="spacingAndGlyphs" textLength="63.75" x="96.75" y="124.9021">numOfEvents : int</text><line style="stroke: #A80036; stroke-width: 1.125;" x1="82.5" x2="169.5" y1="129.7148" y2="129.7148"/><ellipse cx="90" cy="137.9648" fill="#84BE84" rx="2.25" ry="2.25" style="stroke: #038048; stroke-width: 0.75;"/><text fill="#000000" font-family="sans-serif" font-size="8.25" lengthAdjust="spacingAndGlyphs" textLength="63.75" x="96.75" y="141.2791">QueueOfEvents()</text><ellipse cx="90" cy="148.3418" fill="#84BE84" rx="2.25" ry="2.25" style="stroke: #038048; stroke-width: 0.75;"/><text fill="#000000" font-family="sans-serif" font-size="8.25" lengthAdjust="spacingAndGlyphs" textLength="57.75" x="96.75" y="151.656">dequeueEvent()</text><ellipse cx="90" cy="158.7188" fill="#84BE84" rx="2.25" ry="2.25" style="stroke: #038048; stroke-width: 0.75;"/><text fill="#000000" font-family="sans-serif" font-size="8.25" lengthAdjust="spacingAndGlyphs" textLength="57.75" x="96.75" y="162.033">enqueueEvent()</text><ellipse cx="90" cy="169.0957" fill="#84BE84" rx="2.25" ry="2.25" style="stroke: #038048; stroke-width: 0.75;"/><text fill="#000000" font-family="sans-serif" font-size="8.25" lengthAdjust="spacingAndGlyphs" textLength="48" x="96.75" y="172.4099">flushQueue()</text><ellipse cx="90" cy="179.4727" fill="#84BE84" rx="2.25" ry="2.25" style="stroke: #038048; stroke-width: 0.75;"/><text fill="#000000" font-family="sans-serif" font-size="8.25" lengthAdjust="spacingAndGlyphs" textLength="33.75" x="96.75" y="182.7869">isEmpty()</text><!--MD5=[5cc851cb2ba53a58eaa8ec481c2e704f]
class it.polimi.ingsw.PSP30.Utils.QueueOfEvents.Node--><rect fill="#FEFECE" filter="url(#f1bw54mljr82u6)" height="36" id="it.polimi.ingsw.PSP30.Utils.QueueOfEvents.Node" style="stroke: #A80036; stroke-width: 1.125;" width="113.25" x="28.875" y="246.2109"/><ellipse cx="40.125" cy="258.2109" fill="#ADD1B2" rx="8.25" ry="8.25" style="stroke: #A80036; stroke-width: 0.75;"/><path d="M41.625,255.5859 Q41.7773,255.2109 41.9531,255.0234 Q42.1289,254.8359 42.3281,254.8359 Q42.6797,254.8359 42.9023,255.0469 Q43.125,255.2578 43.125,255.75 L43.125,256.9219 Q43.125,257.4141 42.9141,257.625 Q42.7031,257.8359 42.375,257.8359 Q42.082,257.8359 41.8945,257.707 Q41.707,257.5781 41.625,257.2383 Q41.5898,257.0039 41.4609,256.875 Q41.2266,256.6289 40.8047,256.4883 Q40.3828,256.3359 39.9609,256.3359 Q39.4336,256.3359 38.9883,256.5469 Q38.5547,256.7578 38.2148,257.2266 Q37.875,257.6953 37.875,258.3398 L37.875,259.0313 Q37.875,259.8047 38.5078,260.3203 Q39.1406,260.8359 40.2656,260.8359 Q40.9336,260.8359 41.4023,260.6836 Q41.6719,260.6016 41.9766,260.332 Q42.1758,260.1797 42.2813,260.1328 Q42.3867,260.0859 42.5156,260.0859 Q42.7617,260.0859 42.9375,260.2852 Q43.125,260.4727 43.125,260.7422 Q43.125,261 42.8672,261.3047 Q42.4922,261.75 41.8945,261.9961 Q41.1094,262.3359 40.1484,262.3359 Q39.0234,262.3359 38.1211,261.8906 Q37.3945,261.5391 36.8789,260.7773 Q36.375,260.0156 36.375,259.1133 L36.375,258.293 Q36.375,257.3555 36.8203,256.5352 Q37.2773,255.7148 38.0625,255.2813 Q38.8594,254.8359 39.75,254.8359 Q40.2891,254.8359 40.7578,255.0234 Q41.2266,255.2109 41.625,255.5859 Z "/><text fill="#000000" font-family="sans-serif" font-size="9" lengthAdjust="spacingAndGlyphs" textLength="89.25" x="50.625" y="261.8936">QueueOfEvents.Node</text><line style="stroke: #A80036; stroke-width: 1.125;" x1="29.625" x2="141.375" y1="270.2109" y2="270.2109"/><line style="stroke: #A80036; stroke-width: 1.125;" x1="29.625" x2="141.375" y1="276.2109" y2="276.2109"/><!--MD5=[06459fb5ca7336538df995e207f560a7]
class it.polimi.ingsw.PSP30.Messages.Message--><rect fill="#FEFECE" filter="url(#f1bw54mljr82u6)" height="36" id="it.polimi.ingsw.PSP30.Messages.Message" style="stroke: #A80036; stroke-width: 1.125;" width="62.25" x="54.375" y="358.7109"/><ellipse cx="65.625" cy="370.7109" fill="#ADD1B2" rx="8.25" ry="8.25" style="stroke: #A80036; stroke-width: 0.75;"/><path d="M67.125,368.0859 Q67.2773,367.7109 67.4531,367.5234 Q67.6289,367.3359 67.8281,367.3359 Q68.1797,367.3359 68.4023,367.5469 Q68.625,367.7578 68.625,368.25 L68.625,369.4219 Q68.625,369.9141 68.4141,370.125 Q68.2031,370.3359 67.875,370.3359 Q67.582,370.3359 67.3945,370.207 Q67.207,370.0781 67.125,369.7383 Q67.0898,369.5039 66.9609,369.375 Q66.7266,369.1289 66.3047,368.9883 Q65.8828,368.8359 65.4609,368.8359 Q64.9336,368.8359 64.4883,369.0469 Q64.0547,369.2578 63.7148,369.7266 Q63.375,370.1953 63.375,370.8398 L63.375,371.5313 Q63.375,372.3047 64.0078,372.8203 Q64.6406,373.3359 65.7656,373.3359 Q66.4336,373.3359 66.9023,373.1836 Q67.1719,373.1016 67.4766,372.832 Q67.6758,372.6797 67.7813,372.6328 Q67.8867,372.5859 68.0156,372.5859 Q68.2617,372.5859 68.4375,372.7852 Q68.625,372.9727 68.625,373.2422 Q68.625,373.5 68.3672,373.8047 Q67.9922,374.25 67.3945,374.4961 Q66.6094,374.8359 65.6484,374.8359 Q64.5234,374.8359 63.6211,374.3906 Q62.8945,374.0391 62.3789,373.2773 Q61.875,372.5156 61.875,371.6133 L61.875,370.793 Q61.875,369.8555 62.3203,369.0352 Q62.7773,368.2148 63.5625,367.7813 Q64.3594,367.3359 65.25,367.3359 Q65.7891,367.3359 66.2578,367.5234 Q66.7266,367.7109 67.125,368.0859 Z "/><text fill="#000000" font-family="sans-serif" font-size="9" lengthAdjust="spacingAndGlyphs" textLength="38.25" x="76.125" y="374.3936">Message</text><line style="stroke: #A80036; stroke-width: 1.125;" x1="55.125" x2="115.875" y1="382.7109" y2="382.7109"/><line style="stroke: #A80036; stroke-width: 1.125;" x1="55.125" x2="115.875" y1="388.7109" y2="388.7109"/><!--MD5=[122e94b26a87290121e5c843689f1c54]
reverse link it.polimi.ingsw.PSP30.Utils.QueueOfEvents to it.polimi.ingsw.PSP30.Utils.QueueOfEvents.Node--><path d="M74.8063,176.0147 C65.7088,186.1719 57.5388,197.7377 52.5,210.2109 C47.367,222.9174 55.281,236.0154 64.6424,246.0414 " fill="none" id="it.polimi.ingsw.PSP30.Utils.QueueOfEvents&lt;-it.polimi.ingsw.PSP30.Utils.QueueOfEvents.Node" style="stroke: #A80036; stroke-width: 0.75;"/><polygon fill="#FFFFFF" points="81.5633,168.8747,76.2912,170.081,75.377,175.4115,80.6491,174.2052,81.5633,168.8747" style="stroke: #A80036; stroke-width: 0.75;"/><text fill="#000000" font-family="sans-serif" font-size="9.75" lengthAdjust="spacingAndGlyphs" textLength="39.75" x="53.25" y="221.0823">firstEvent</text><!--MD5=[122e94b26a87290121e5c843689f1c54]
reverse link it.polimi.ingsw.PSP30.Utils.QueueOfEvents to it.polimi.ingsw.PSP30.Utils.QueueOfEvents.Node--><path d="M106.2495,197.1774 C100.6268,215.1384 94.953,233.2644 90.963,246.0107 " fill="none" id="it.polimi.ingsw.PSP30.Utils.QueueOfEvents&lt;-it.polimi.ingsw.PSP30.Utils.QueueOfEvents.Node-1" style="stroke: #A80036; stroke-width: 0.75;"/><polygon fill="#FFFFFF" points="109.176,187.8287,104.9686,191.2268,106.4871,196.4176,110.6945,193.0195,109.176,187.8287" style="stroke: #A80036; stroke-width: 0.75;"/><text fill="#000000" font-family="sans-serif" font-size="9.75" lengthAdjust="spacingAndGlyphs" textLength="39.75" x="102.75" y="221.0823">lastEvent</text><!--MD5=[122e94b26a87290121e5c843689f1c54]
reverse link it.polimi.ingsw.PSP30.Utils.QueueOfEvents to it.polimi.ingsw.PSP30.Utils.QueueOfEvents.Node--><path d="M154.4453,199.1417 C154.875,207.6722 153.48,216.0879 149.25,223.7109 C144.1238,232.9487 135.8588,240.3204 126.9555,246.0812 " fill="none" id="it.polimi.ingsw.PSP30.Utils.QueueOfEvents&lt;-it.polimi.ingsw.PSP30.Utils.QueueOfEvents.Node-2" style="stroke: #A80036; stroke-width: 0.75;"/><ellipse cx="153.7253" cy="193.8644" fill="#FFFFFF" rx="6" ry="6" style="stroke: #A80036; stroke-width: 0.75;"/><line style="stroke: #A80036; stroke-width: 0.75;" x1="154.5362" x2="152.9145" y1="199.8094" y2="187.9194"/><line style="stroke: #A80036; stroke-width: 0.75;" x1="147.7804" x2="159.6703" y1="194.6752" y2="193.0536"/><!--MD5=[6506e76c9f7cfd337cbd065ea29287b6]
reverse link it.polimi.ingsw.PSP30.Utils.QueueOfEvents.Node to it.polimi.ingsw.PSP30.Messages.Message--><path d="M85.5,292.0734 C85.5,312.7224 85.5,340.5459 85.5,358.3727 " fill="none" id="it.polimi.ingsw.PSP30.Utils.QueueOfEvents.Node&lt;-it.polimi.ingsw.PSP30.Messages.Message" style="stroke: #A80036; stroke-width: 0.75;"/><polygon fill="#FFFFFF" points="85.5,282.3047,82.5,286.8047,85.5,291.3047,88.5,286.8047,85.5,282.3047" style="stroke: #A80036; stroke-width: 0.75;"/><text fill="#000000" font-family="sans-serif" font-size="9.75" lengthAdjust="spacingAndGlyphs" textLength="39.75" x="86.25" y="317.0823">message</text><!--MD5=[9797f39f3844eacae25556e2722e35ab]
reverse link it.polimi.ingsw.PSP30.Utils.QueueOfEvents.Node to it.polimi.ingsw.PSP30.Utils.QueueOfEvents.Node--><path d="M152.0138,256.3254 C161.7825,257.5667 168.375,260.1954 168.375,264.2109 C168.375,269.4557 157.1288,272.3342 142.2465,272.8464 " fill="none" id="it.polimi.ingsw.PSP30.Utils.QueueOfEvents.Node&lt;-it.polimi.ingsw.PSP30.Utils.QueueOfEvents.Node" style="stroke: #A80036; stroke-width: 0.75;"/><polygon fill="#FFFFFF" points="142.2465,255.5754,146.5035,258.9113,151.2201,256.2648,146.9631,252.9289,142.2465,255.5754" style="stroke: #A80036; stroke-width: 0.75;"/><text fill="#000000" font-family="sans-serif" font-size="9.75" lengthAdjust="spacingAndGlyphs" textLength="42.75" x="172.875" y="268.3323">nextEvent</text><!--MD5=[0183ea9bb7f51162ff50bf7afb794890]
@startuml

title __UTILS's Class Diagram__\n

    namespace it.polimi.ingsw.PSP30.Utils {
      class it.polimi.ingsw.PSP30.Utils.QueueOfEvents {
          {static} - MAX_EVENTS : int
          - numOfEvents : int
          + QueueOfEvents()
          + dequeueEvent()
          + enqueueEvent()
          + flushQueue()
          + isEmpty()
      }
    }
  

    namespace it.polimi.ingsw.PSP30.Utils {
      class it.polimi.ingsw.PSP30.Utils.QueueOfEvents.Node {
      }
    }
  

  it.polimi.ingsw.PSP30.Utils.QueueOfEvents o- - it.polimi.ingsw.PSP30.Utils.QueueOfEvents.Node : firstEvent
  it.polimi.ingsw.PSP30.Utils.QueueOfEvents o- - it.polimi.ingsw.PSP30.Utils.QueueOfEvents.Node : lastEvent
  it.polimi.ingsw.PSP30.Utils.QueueOfEvents +-down- it.polimi.ingsw.PSP30.Utils.QueueOfEvents.Node
  it.polimi.ingsw.PSP30.Utils.QueueOfEvents.Node o- - it.polimi.ingsw.PSP30.Messages.Message : message
  it.polimi.ingsw.PSP30.Utils.QueueOfEvents.Node o- - it.polimi.ingsw.PSP30.Utils.QueueOfEvents.Node : nextEvent


@enduml

PlantUML version 1.2020.09(Sun May 10 12:51:06 CEST 2020)
(GPL source distribution)
Java Runtime: OpenJDK Runtime Environment
JVM: OpenJDK 64-Bit Server VM
Java Version: 11.0.6+8-b520.66
Operating System: Windows 10
Default Encoding: Cp1252
Language: it
Country: IT
--></g></svg>